<svg xmlns="http://www.w3.org/2000/svg" viewBox="0 0 342.94 347.55"><defs><style>.cls-1{fill:#fff;}</style></defs><g id="Layer_2" data-name="Layer 2"><g id="Layer_1-2" data-name="Layer 1"><g id="Layer_2-2" data-name="Layer 2"><g id="Layer_1-2-2" data-name="Layer 1-2"><path class="cls-1" d="M.6,161.94c3.48,6,6.21,11.82,9.84,16.89a264.76,264.76,0,0,0,18,23.13C48,223.83,72.06,240.09,97.17,254.91c1,.63,2.07,1.35,3.9,2.52a21.37,21.37,0,0,1-3.18.66H3.24c-2.25,0-3.27-.57-3.24-3V164A12,12,0,0,1,.6,161.94Z"/><path class="cls-1" d="M135.84,220.14v10.23c0,6,1.47,7.44,7.47,7.44h37.8c5,0,6.33-1.41,6.36-6.42v-7.92c0-2.07.51-3,2.79-3,6-.21,6-.33,6,5.79v1.08c0,9.63,3.24,12.27,12.81,10.35,2.19-.42,4.26-1.26,7.17-2.13l-9.45-9.33c-.6-.6-1.41-1.08-1.74-1.77-.84-2,5.28-11,7.47-11.07,6.24,0,12.48-.18,18.72,0a9.51,9.51,0,0,1,8.58,6.69,9.85,9.85,0,0,1-2.1,10.08c-1.89,2.25-3.81,4.47-6.21,7.26,7.41,0,15,.42,22.26,0,3.45,0,4-3.42,4.2-6.18a52,52,0,0,0,0-7.89c-.15-2.43.87-3,3-3,5.22,0,5.22,0,5,5-.39,10.41,1.53,12.39,12,12.39h3.6c5.67,0,7.11-1.5,7.14-7.35a46.13,46.13,0,0,0,0-5.76c-.33-3.21.72-4.47,4.14-4.35s5.13.54,4.74,4.32c-.24,2.37,0,4.8,0,7.2a5.23,5.23,0,0,0,3.78,5.43c2.28,1,3.54.42,4.77-1.92a133.5,133.5,0,0,1,9.66-16.23,14.07,14.07,0,0,1,11.79-6,15,15,0,0,1,14.19,10.44A22.6,22.6,0,0,1,340,241.8a8.64,8.64,0,0,1-8.19,4.86c-7.8,0-15.63-.18-23.4,0-5.46,0-10.29-.66-13.26-5.61-9.72,8.52-20.4,6.33-31.14,3.63-.81-.18-1.89-.51-2.43,0-5.34,3.3-11.19,1.83-16.86,2-7.05.24-14.19.66-20.1-4.56-.6-.51-2.55,0-3.51.51a31.36,31.36,0,0,1-27.78,2.16,6.9,6.9,0,0,0-3,0,52.87,52.87,0,0,1-9,1.77c-13.77.18-27.57,0-41.37,0a12.15,12.15,0,0,1-12.18-12V223.8c0-2.7.87-3.72,3.51-3.51A31.55,31.55,0,0,0,135.84,220.14Zm178,17.76c5.25,0,9.87-.21,14.46,0,3,.21,5.1-1.14,5.46-3.87a20.62,20.62,0,0,0-.6-8.7c-1.2-3.57-3.84-4.05-7.23-2.19C320.28,226.26,317.31,231.63,313.8,237.9Zm-98-16.44-.36.9c1.23,1.41,2.52,2.79,3.72,4.26,3.63,4.41,6,4.5,9.75,0,.69-.84,1.5-2.34,1.17-3a4.13,4.13,0,0,0-3-2.1C223.35,221.31,219.54,221.46,215.76,221.46Z"/><path class="cls-1" d="M33.15.9c-3,4.86-6,9.6-8.76,14.58a95.12,95.12,0,0,0-11.1,35.1A110.69,110.69,0,0,0,20.34,102a200.47,200.47,0,0,0,28,51.24,375.32,375.32,0,0,0,40.26,44.82c2.19,2.1,4.56,4,6.81,6l-.72,1.2a26.78,26.78,0,0,1-4-1.86,269.8,269.8,0,0,1-35.16-27,199.26,199.26,0,0,1-27.87-31.23A153.08,153.08,0,0,1,5.1,98.64,121.16,121.16,0,0,1,.42,55.14a70.24,70.24,0,0,1,17.28-42A164,164,0,0,1,29.91,1.62a15.81,15.81,0,0,1,3-1.62Z"/><path class="cls-1" d="M98.46,318.06c-7.11,5.64-12,5.67-18.21.6a77.68,77.68,0,0,1-10.83,2.73,66.91,66.91,0,0,1-10.77-.63,61.11,61.11,0,0,1-2.52,8.61,16.81,16.81,0,0,1-16,10.08H35.43a4.65,4.65,0,0,1-4.79-4.51,4.7,4.7,0,0,1,.2-1.49c.18-.63,1.56-1.2,2.46-1.29,3-.33,6.24,0,9.27-.69a10.15,10.15,0,0,0,8.82-11.13V304.5c0-2.25-.84-4.8,3.27-4.86S58,302,58.05,304.32v4.32a4.94,4.94,0,0,0,4.3,5.52,5.23,5.23,0,0,0,1.25,0h6.48c4,0,5.55-1.53,5.79-5.58a34.91,34.91,0,0,0,0-5c-.24-2.67.48-3.93,3.51-3.9s3.33,1.47,3.21,3.81a46.71,46.71,0,0,0,0,6.48A5.55,5.55,0,0,0,88,315.64a5.1,5.1,0,0,0,1-.07c3.72-.24,4.23-2.82,4.14-6a14.22,14.22,0,0,1,0-3.57c.57-2.4-2.16-6.48,3.42-6.45s2.61,4,3.18,6.24.3,3.81.72,5.67c.69,3.15,2.82,4.32,6.51,4,3-.27,3.48-2.37,3.42-4.86s0-5.28,0-7.92,1.2-3,3.48-3,4,.27,3.9,3.24v6.84a3.66,3.66,0,0,0,3,4.21,3.35,3.35,0,0,0,.71.05c5.28.27,10.56.18,15.84,0a3.15,3.15,0,0,0,2.34-1.65c.63-1.65.48-3.54,1.11-5.19,1-2.55-3-7.53,3.36-7.41s2,5.07,3.18,7.59c.27.57,0,1.41,0,2.13.27,3,1.35,4.89,4.89,4.68a125.48,125.48,0,0,1,12.57,0c3.42.18,4.5-1.65,4.65-4.5s0-5.07,0-7.56c0-.87,1.2-2.25,1.89-2.25,1.5,0,4.32.6,4.32,1,.21,6,2.22,12.63-2.55,17.82a9.41,9.41,0,0,1-6,2.64,79.49,79.49,0,0,1-17.58,0,42.25,42.25,0,0,0-12.3,0,113.13,113.13,0,0,1-14.73.15c-.84,0-2,.24-2.46-.21-3-3-5.55-1.74-8.82,0C106.62,324.06,102.51,321,98.46,318.06Z"/><path class="cls-1" d="M236,295.56v13.68c0,3.21,1.29,5.31,4.86,5.22a103.1,103.1,0,0,0,12.18-.48,4.39,4.39,0,0,0,3-3,42.23,42.23,0,0,0,.6-8.55c0-2.31,1.17-2.82,3.18-2.76s3.66,0,3.57,2.73,0,4.56,0,6.84A4.23,4.23,0,0,0,267,314a3.77,3.77,0,0,0,.58,0c4.68.27,9.33.33,14,.36a3.93,3.93,0,0,0,4.26-3.57,4.33,4.33,0,0,0,0-.72c0-2.49.18-5,0-7.53s1.29-3,3.42-3,3.69.42,3.45,3a75,75,0,0,1-1.68,13.35,7.89,7.89,0,0,1-8.7,5.55h-5.73c-6,0-12,.69-17.55-2.07-5.46,3.66-11.64,1.62-17.49,2a16.36,16.36,0,0,1-6-1,8.16,8.16,0,0,1-6.39-8.82V281.73c0-2.67,1.14-3.24,3.48-3.24s3.42.81,3.33,3.36c-.18,4.56,0,9,0,13.68Z"/><path class="cls-1" d="M71.13,29.49c-2.1,3.69-4.35,7.29-6.27,11.07A51.61,51.61,0,0,0,61,74.1c3.9,21.3,15.18,38.82,29.1,54.9l9.42,11.07-.75,1c-2.55-1.83-5.22-3.54-7.65-5.52A111.41,111.41,0,0,1,59,94.5,69.92,69.92,0,0,1,52.62,68c-.27-10.56,1.2-20.49,7.5-29.1A107.85,107.85,0,0,1,70.05,28.5Z"/><path class="cls-1" d="M193.23,313.74V294.27c0-4.44.18-9,0-13.32-.18-3,1.08-3.57,3.78-3.63s3.78.81,3.69,3.72c-.21,6.21,0,12.42,0,19.62,1.53-1.26,2.43-1.92,3.21-2.67,6.78-6.69,15-5,18.93,4.56a15,15,0,0,1,.81,10.77A10.52,10.52,0,0,1,213,321.54H192.48c-3.75,0-5-1.38-4.71-5.67.18-3,2.82-1.17,4.26-1.77Zm6.93-1.05.78,1.47h8.13c6.42,0,7.62-1.11,7.17-7.53A6.5,6.5,0,0,0,213.9,302a5.15,5.15,0,0,0-4.8.84C205.8,305.85,203.1,309.36,200.16,312.69Z"/><path class="cls-1" d="M19.53,321.9c-3.08-.34-6.15-.83-9.18-1.47A10,10,0,0,1,2.46,309.9a27.85,27.85,0,0,1,.87-9c2.25-6,6.57-7.86,13.62-6.84a10.87,10.87,0,0,1,9.3,10.32,153.85,153.85,0,0,1,.69,19.32A17.63,17.63,0,0,1,9.18,339.51H4.53c-3.27.27-4.47-1.08-4.35-4.38,0-2.52,1.11-2.82,3.24-3a47.6,47.6,0,0,0,12-2.28A7,7,0,0,0,19.53,321.9Zm0-7.86a38.7,38.7,0,0,0-.18-9,6,6,0,0,0-4-3.63,6,6,0,0,0-5.13,2.07,6.57,6.57,0,0,0,5.82,10.41Z"/><path class="cls-1" d="M155,71.07c0-9,4.65-12,10.65-8.82A24.53,24.53,0,0,1,178.8,81.12a7.14,7.14,0,0,1-11,7.53A23.21,23.21,0,0,1,155,71.07Z"/><path class="cls-1" d="M118.32,41.67c-1.53,3-3.21,6-4.56,9-4.38,10-3.33,20-.27,30.27,4.5,15,14.58,26.22,25.08,37.17.6.66,1.11,1.38,2.22,2.73-1.47-.27-2.19-.18-2.67-.51-14.34-9.78-25.59-22.11-30.69-39-3-10.29-3.6-20.67,1.65-30.57A15.65,15.65,0,0,1,118.32,41.67Z"/><path class="cls-1" d="M323.37,313.2a82.6,82.6,0,0,1-1.08,13.14,16.83,16.83,0,0,1-17,13.17h-4c-4.77,0-6-1-5.46-5.61,0-.66,1.71-1.5,2.76-1.71,4-.84,8.22-1.08,12-2.28a7.22,7.22,0,0,0,5-7.83c-.18-6.24,0-12.48,0-18.72,0-3,1.14-3.63,3.84-3.69s3.81,1,3.66,3.78c-.18,3.24,0,6.48,0,9.72Z"/><path class="cls-1" d="M332.91,299.22V280.56c0-2.31.78-3.21,3-3.18s3.63.45,3.6,3v38.1c0,2.49-1.2,3-3.36,3s-3.42-.36-3.39-3C333,312.15,332.91,305.7,332.91,299.22Z"/><path class="cls-1" d="M252.42,213.39a7,7,0,0,1-6.42-6c0-3,2.52-4.89,6.51-4.86s6.42,1.62,6.3,4.89A6.63,6.63,0,0,1,252.42,213.39Z"/><path class="cls-1" d="M153.81,211.5c-3.57,0-6-1.92-6-4.83a5.31,5.31,0,0,1,5.7-4.89l.3,0c3.78,0,5.76,1.74,5.73,4.89S157.62,211.5,153.81,211.5Z"/><path class="cls-1" d="M169.8,211.32c-3.75,0-5.4-1.41-5.4-4.59s1.95-4.83,5.67-4.83a5.52,5.52,0,0,1,6,4.95A5.64,5.64,0,0,1,169.8,211.32Z"/><path class="cls-1" d="M249.51,330c3-.18,4.92.93,5,4.08a5.16,5.16,0,0,1-5.19,4.74,4.53,4.53,0,0,1-5-4.05,4.33,4.33,0,0,1,0-.72C244.38,331.53,246.36,330,249.51,330Z"/><path class="cls-1" d="M283.41,288.9a4.44,4.44,0,0,1-4.24,4.63h-.5A4.75,4.75,0,0,1,274,288.9c-.3-2.16,2.13-4.29,4.62-4.32a4.56,4.56,0,0,1,4.83,4.28Z"/><path class="cls-1" d="M164,347.55c-2.31-.63-4.65-1.32-4.5-4.44a4.41,4.41,0,0,1,4.35-4.35,5.19,5.19,0,0,1,5.1,4.53C168.75,346.35,166.59,347.13,164,347.55Z"/><path class="cls-1" d="M129.93,338.79c-2.55,0-5.37-2.43-5-4.5.45-2.76,2.55-3.51,5-3.57a4.3,4.3,0,0,1,4.79,3.73s0,.07,0,.11C135.06,336.9,132.48,338.82,129.93,338.79Z"/><path class="cls-1" d="M94.56,283.59c-2.61-.33-4.83-1.14-5-4.14s2-4,4.38-4.11c3-.21,5.28,1.68,5.07,4.17A4.29,4.29,0,0,1,94.56,283.59Z"/><path class="cls-1" d="M87.6,293.43c-2.7-.15-4.44-1.29-4.53-4.26s2.22-3.84,4.74-3.81,4.62,1.11,4.44,3.9a3.89,3.89,0,0,1-3.54,4.23A4.14,4.14,0,0,1,87.6,293.43Z"/><path class="cls-1" d="M157.5,337.38c-2.46-.21-4.65-1.05-4.5-3.93a4.26,4.26,0,0,1,4.32-4.2l.48,0c2.7,0,4.5,1.35,4.5,4.08S160.41,337.53,157.5,337.38Z"/><path class="cls-1" d="M175.38,332.82c0,3.6-1.71,4.47-4.35,4.53s-4.77-.87-4.77-3.57a4.17,4.17,0,0,1,3.81-4.5,3.64,3.64,0,0,1,.66,0C173.61,329.25,175.23,330.51,175.38,332.82Z"/><path class="cls-1" d="M142.8,330.69c2.85,0,5.13,1.2,5,4.08a4,4,0,0,1-4,4.09,4.08,4.08,0,0,1-.61,0c-2.76,0-4.59-1.14-4.74-4.17S140.49,330.9,142.8,330.69Z"/><path class="cls-1" d="M101,293.43a4.21,4.21,0,0,1-4.76-3.56,4.08,4.08,0,0,1,0-.61c-.18-2.58,1.68-3.87,4.14-3.9s4.83.6,5.19,3.66a4.28,4.28,0,0,1-4.16,4.41Z"/><path class="cls-1" d="M296.37,289.44a4.1,4.1,0,0,1-4.31,3.9H292c-2.46-.36-4.5-1.38-4.47-4.53a3.51,3.51,0,0,1,3.09-3.89,3.62,3.62,0,0,1,.93,0C293.91,285,296.46,285.42,296.37,289.44Z"/></g></g></g></g></svg>